<?xml version="1.0" encoding="UTF-8"?>
<!DOCTYPE svg PUBLIC "-//W3C//DTD SVG 1.1//EN" "http://www.w3.org/Graphics/SVG/1.1/DTD/svg11.dtd">
<!-- Creator: CorelDRAW 2021 (64-Bit) -->
<svg xmlns="http://www.w3.org/2000/svg" xml:space="preserve" width="211.667mm" height="185.208mm" version="1.1" style="shape-rendering:geometricPrecision; text-rendering:geometricPrecision; image-rendering:optimizeQuality; fill-rule:evenodd; clip-rule:evenodd"
viewBox="0 0 21166.68 18520.84"
 xmlns:xlink="http://www.w3.org/1999/xlink"
 xmlns:xodm="http://www.corel.com/coreldraw/odm/2003">
 <defs>
  <style type="text/css">
   <![CDATA[
    .str0 {stroke:black;stroke-width:1322.92;stroke-linecap:round;stroke-linejoin:round;stroke-miterlimit:22.9256}
    .fil3 {fill:none;fill-rule:nonzero}
    .fil0 {fill:#CCE7D4;fill-rule:nonzero}
    .fil2 {fill:#36791E;fill-rule:nonzero}
    .fil1 {fill:#668077;fill-rule:nonzero}
   ]]>
  </style>
 </defs>
 <g id="Capa_x0020_1">
  <metadata id="CorelCorpID_0Corel-Layer"/>
  <path class="fil0" d="M14552.09 10583.34c0,-2189.43 -1779.32,-3968.75 -3968.75,-3968.75 -2189.43,0 -3968.75,1779.32 -3968.75,3968.75 0,2189.42 1779.32,3968.75 3968.75,3968.75 2189.43,0 3968.75,-1779.33 3968.75,-3968.75zm4630.21 -2586.31c-13.23,1977.77 -661.46,4570.68 -661.46,4570.68 -661.46,1984.38 -2645.83,5291.67 -7937.5,5291.67 -5291.67,0 -7276.04,-3307.29 -7937.5,-5291.67 0,0 -648.23,-2592.91 -661.46,-4570.68 1435.37,-2222.5 4153.96,-4689.74 8598.96,-4689.74 4445,0 7163.59,2467.24 8598.96,4689.74z"/>
  <path class="fil1" d="M10583.34 6614.59c2189.43,0 3968.75,1779.32 3968.75,3968.75 0,2189.42 -1779.32,3968.75 -3968.75,3968.75 -2189.43,0 -3968.75,-1779.33 -3968.75,-3968.75 0,-2189.43 1779.32,-3968.75 3968.75,-3968.75z"/>
  <path class="fil2" d="M10583.34 9260.42c734.22,0 1322.92,595.31 1322.92,1322.92 0,727.6 -588.7,1322.91 -1322.92,1322.91 -727.6,0 -1322.92,-595.31 -1322.92,-1322.91 0,-727.61 595.32,-1322.92 1322.92,-1322.92z"/>
  <path class="fil3 str0" d="M2646.5 12567.71c661.46,1984.38 2645.83,5291.67 7937.5,5291.67 5291.67,0 7276.04,-3307.29 7937.5,-5291.67m1983.72 -1322.91c0,-1322.92 -2645.18,-7937.51 -9921.88,-7937.51m0 0c-7275.38,0 -9921.88,6614.59 -9921.88,7937.51m9921.88 -7937.51l0 -2645.83m3423.58 450.85l-661.46 2466.58m3852.46 -1144.92l-1323.57 2290.63m4063.07 -188.71l-1870.6 1869.94m-10908.31 -5293.52l660.79 2466.58m-3851.2 -1144.92l1322.91 2291.29m-4062.41 -189.37l1870.6 1870.6m7484.8 208.1c-2191.41,0 -3968.75,1777.34 -3968.75,3968.75 0,2191.41 1777.34,3968.75 3968.75,3968.75 2191.41,0 3968.75,-1777.34 3968.75,-3968.75m-500.66 -1926.9c-359.83,-646.9 -894.95,-1181.36 -1541.19,-1541.2m-603.98 3468.1c0,-730.25 -592.67,-1322.92 -1322.92,-1322.92 -730.25,0 -1322.92,592.67 -1322.92,1322.92 0,730.25 592.67,1322.91 1322.92,1322.91 730.25,0 1322.92,-592.66 1322.92,-1322.91z"/>
 </g>
</svg>
