<?xml version="1.0" encoding="UTF-8"?>
<!DOCTYPE svg PUBLIC "-//W3C//DTD SVG 1.1//EN" "http://www.w3.org/Graphics/SVG/1.1/DTD/svg11.dtd">
<!-- Creator: CorelDRAW 2021 (64-Bit) -->
<svg xmlns="http://www.w3.org/2000/svg" xml:space="preserve" width="211.667mm" height="185.208mm" version="1.1" style="shape-rendering:geometricPrecision; text-rendering:geometricPrecision; image-rendering:optimizeQuality; fill-rule:evenodd; clip-rule:evenodd"
viewBox="0 0 21166.68 18520.84"
 xmlns:xlink="http://www.w3.org/1999/xlink"
 xmlns:xodm="http://www.corel.com/coreldraw/odm/2003">
 <defs>
  <style type="text/css">
   <![CDATA[
    .str0 {stroke:black;stroke-width:1322.92;stroke-linecap:round;stroke-linejoin:round;stroke-miterlimit:22.9256}
    .fil2 {fill:none;fill-rule:nonzero}
    .fil1 {fill:#36791E;fill-rule:nonzero}
    .fil0 {fill:#FFC44D;fill-rule:nonzero}
   ]]>
  </style>
 </defs>
 <g id="Capa_x0020_1">
  <metadata id="CorelCorpID_0Corel-Layer"/>
  <path class="fil0" d="M10583.34 661.46c6614.58,0 9921.88,5953.13 9921.88,7276.04 0,1322.92 -3307.3,7276.05 -9921.88,7276.05 -6614.58,0 -9921.88,-5953.13 -9921.88,-7276.05 0,-1322.91 3307.3,-7276.04 9921.88,-7276.04z"/>
  <g>
   <path class="fil1" d="M10584 17859.38l0 -2645.83 0 2645.83zm-3424.9 -450.85l685.27 -2555.22 -685.27 2555.22zm-3191 -1321.66l1323.57 -2290.63 -1323.57 2290.63zm-2739.5 -2101.92l1870.6 -1869.94 -1870.6 1869.94zm12778.98 3423.58l-684.61 -2555.22 684.61 2555.22zm3190.34 -1321.66l-1322.91 -2291.29 1322.91 2291.29zm2739.5 -2101.92l-1870.6 -1870.6 1870.6 1870.6zm567.8 -6047.45c0,1322.92 -3307.3,7276.05 -9921.88,7276.05 -6614.58,0 -9921.88,-5953.13 -9921.88,-7276.05 0,-1322.91 3307.3,-7276.04 9921.88,-7276.04 6614.58,0 9921.88,5953.13 9921.88,7276.04z"/>
   <path id="_1" class="fil2 str0" d="M10584 17859.38l0 -2645.83m-3424.9 2194.98l685.27 -2555.22m-3876.27 1233.56l1323.57 -2290.63m-4063.07 188.71l1870.6 -1869.94m10908.38 5293.52l-684.61 -2555.22m3874.95 1233.56l-1322.91 -2291.29m4062.41 189.37l-1870.6 -1870.6m2438.4 -4176.85c0,1322.92 -3307.3,7276.05 -9921.88,7276.05 -6614.58,0 -9921.88,-5953.13 -9921.88,-7276.05 0,-1322.91 3307.3,-7276.04 9921.88,-7276.04 6614.58,0 9921.88,5953.13 9921.88,7276.04z"/>
  </g>
 </g>
</svg>
